<?xml version="1.0" encoding="utf-8"?>
<!-- Generator: Adobe Illustrator 26.1.0, SVG Export Plug-In . SVG Version: 6.00 Build 0)  -->
<svg version="1.1" id="Layer_1" xmlns="http://www.w3.org/2000/svg" xmlns:xlink="http://www.w3.org/1999/xlink" x="0px" y="0px"
	 viewBox="0 0 180 180" style="enable-background:new 0 0 180 180;" xml:space="preserve">
<style type="text/css">
	.st0{enable-background:new    ;}
	.st1{fill:#ED2024;}
</style>
<g>
	<g>
		<g class="st0">
			<path class="st1" d="M103.7,114.9c-2.9-3.1-5.9-5.4-9.1-6.9c-3.2-1.5-6.8-2.2-10.7-2.2c-3.2,0-6.2,0.6-9.2,1.9
				c-3,1.3-5.6,3.1-7.8,5.3c-2.3,2.4-4,5-5.1,7.9c-1.1,2.9-1.7,6.1-1.7,9.7c0,2.8,0.3,5.3,1,7.7c0.7,2.3,1.7,4.5,3.1,6.4
				c2.4,3.4,5.3,6,8.8,7.8c3.5,1.8,7.3,2.7,11.3,2.7c3.8,0,7.3-0.8,10.6-2.4c3.3-1.6,6.2-3.9,8.9-7v9.4c-3,2.1-6.1,3.8-9.6,4.9
				c-3.4,1.1-6.9,1.7-10.6,1.7c-3.2,0-6.2-0.5-9.2-1.4c-3-0.9-5.8-2.3-8.4-4.1c-4.3-3-7.7-6.7-10-11.1c-2.3-4.4-3.4-9.2-3.4-14.5
				c0-4.6,0.8-8.8,2.3-12.5c1.5-3.8,3.9-7.2,7-10.2c3-2.9,6.4-5.1,10.1-6.6c3.7-1.5,7.7-2.2,12.1-2.2c3.4,0,6.8,0.5,10,1.6
				c3.2,1,6.4,2.7,9.6,4.9V114.9z"/>
		</g>
		<g class="st0">
			<path d="M108.3,160.3l33.5-53.2h-27.2v-6.5h39.2l-33.2,52.9h31.8v6.8H108.3z"/>
		</g>
		<g class="st0">
			<path class="st1" d="M27.5,97.5V68.9h-6.6l2.2-3.3h8.2v31.9H27.5z"/>
			<path class="st1" d="M57.9,97.5v-6.9H42.8L60,64.9h1.6v22.5h3.8v3.1h-3.8v6.9H57.9z M57.9,87.4V73.3l-9.4,14.1H57.9z"/>
		</g>
	</g>
	<g class="st0">
		<path d="M35.2,17.9L50,51.8h-4.2l-4.2-10H28.8l-4.2,10h-4.2L35.2,17.9z M35.2,26.5l-5.2,12h10.4L35.2,26.5z"/>
		<path d="M58.4,51.8V19.2H66c2.2,0,3.8,0.1,4.8,0.4c1,0.2,1.9,0.7,2.7,1.3c1,0.8,1.7,1.8,2.3,3c0.5,1.3,0.8,2.7,0.8,4.2
			c0,2.7-0.7,4.7-2.2,6.1c-1.5,1.4-3.7,2.1-6.6,2.1h-0.7l12.5,15.6h-4.9L62.7,36.3h-0.6v15.6H58.4z M62.1,22.5v10.9h3
			c3,0,5.1-0.4,6.1-1.2c1-0.8,1.5-2.1,1.5-4.1c0-2.1-0.5-3.6-1.6-4.4c-1.1-0.8-3.1-1.3-6-1.3H62.1z"/>
		<path d="M114.3,27c-1.6-1.7-3.2-2.9-5-3.8c-1.8-0.8-3.7-1.2-5.9-1.2c-1.7,0-3.4,0.3-5,1c-1.6,0.7-3.1,1.7-4.3,2.9
			c-1.2,1.3-2.2,2.7-2.8,4.3c-0.6,1.6-0.9,3.4-0.9,5.3c0,1.5,0.2,2.9,0.6,4.2c0.4,1.3,0.9,2.5,1.7,3.5c1.3,1.9,2.9,3.3,4.8,4.3
			c1.9,1,4,1.5,6.2,1.5c2.1,0,4-0.4,5.8-1.3c1.8-0.9,3.4-2.1,4.9-3.9v5.1c-1.6,1.2-3.4,2.1-5.2,2.7c-1.9,0.6-3.8,0.9-5.8,0.9
			c-1.7,0-3.4-0.3-5-0.8s-3.2-1.3-4.6-2.2c-2.4-1.7-4.2-3.7-5.5-6.1c-1.3-2.4-1.9-5.1-1.9-7.9c0-2.5,0.4-4.8,1.3-6.9
			c0.8-2.1,2.1-3.9,3.8-5.6c1.7-1.6,3.5-2.8,5.5-3.6c2-0.8,4.2-1.2,6.6-1.2c1.9,0,3.7,0.3,5.5,0.9s3.5,1.5,5.2,2.7V27z"/>
		<path d="M125.8,51.8V19.2h3.9v12.6h17.3V19.2h3.9v32.6h-3.9V35.5h-17.3v16.4H125.8z"/>
	</g>
</g>
</svg>
