<?xml version="1.0" encoding="utf-8"?>
<!-- Generator: Adobe Illustrator 26.1.0, SVG Export Plug-In . SVG Version: 6.00 Build 0)  -->
<svg version="1.1" id="Layer_1" xmlns="http://www.w3.org/2000/svg" xmlns:xlink="http://www.w3.org/1999/xlink" x="0px" y="0px"
	 viewBox="0 0 256 256" style="enable-background:new 0 0 256 256;" xml:space="preserve">
<style type="text/css">
	.st0{enable-background:new    ;}
	.st1{fill:#ED2024;stroke:#ED2024;stroke-width:6;stroke-miterlimit:10;}
	.st2{stroke:#000000;stroke-width:6;stroke-miterlimit:10;}
</style>
<g class="st0">
	<path class="st1" d="M158.9,139.4c-4.8-5.3-10-9.1-15.5-11.7c-5.5-2.5-11.6-3.8-18.2-3.8c-5.4,0-10.6,1.1-15.7,3.3
		c-5.1,2.2-9.5,5.2-13.3,9.1c-3.9,4-6.8,8.5-8.7,13.5c-1.9,5-2.9,10.4-2.9,16.4c0,4.7,0.6,9,1.7,13c1.2,4,2.9,7.6,5.2,10.9
		c4.1,5.8,9.1,10.2,15,13.3s12.3,4.7,19.2,4.7c6.5,0,12.5-1.3,18-4s10.6-6.7,15.2-12v16c-5,3.6-10.4,6.4-16.2,8.3
		c-5.8,1.9-11.8,2.8-18,2.8c-5.4,0-10.6-0.8-15.6-2.4c-5.1-1.6-9.8-3.9-14.3-7c-7.4-5.1-13-11.4-16.9-18.9s-5.8-15.7-5.8-24.6
		c0-7.8,1.3-14.9,3.9-21.3c2.6-6.4,6.6-12.2,11.9-17.4c5.2-5,10.9-8.7,17.2-11.2c6.3-2.5,13.1-3.7,20.6-3.7c5.9,0,11.5,0.9,17,2.7
		c5.5,1.8,10.9,4.5,16.3,8.3L158.9,139.4L158.9,139.4z"/>
</g>
<g class="st0">
	<path class="st2" d="M166.6,216.5l57-90.3h-46.2v-11H244L187.6,205h54.1v11.5H166.6z"/>
</g>
<g>
	<path class="st1" d="M29.7,101.2V42.6H16.2l4.4-6.9h16.7v65.4L29.7,101.2L29.7,101.2z"/>
	<path class="st1" d="M92,101.2V87H61l35.4-52.5h3.3v46.1h7.8V87h-7.8v14.2H92z M92,80.6v-29l-19.3,29H92z"/>
</g>
</svg>
